PathFileType	4	(X/Y/Z)	C:/Users/beibeiliu/ov580/test_trc/User1\sequence.34_training_dense_left.trc
DataRate	CameraRate	NumFrames	NumMarkers	Units	OrigDataRate	OrigDataStartFrame	OrigNumFrames
120	120	24	19	mm	120	176	234
Frame#	Time	ThumbCMC			ThumbMCP			ThumbIP			ThumbTip			IndexMCP			IndexPIP			IndexTip			MiddleMCP			MiddlePIP			MiddleTip			RingMCP			RingPIP			RingTip			PinkyMCP			PinkyPIP			PinkyTip			BackHand1			BackHand2			BackHand3	
		X0	Y0	Z0	X1	Y1	Z1	X2	Y2	Z2	X3	Y3	Z3	X4	Y4	Z4	X5	Y5	Z5	X6	Y6	Z6	X7	Y7	Z7	X8	Y8	Z8	X9	Y9	Z9	X10	Y10	Z10	X11	Y11	Z11	X12	Y12	Z12	X13	Y13	Z13	X14	Y14	Z14	X15	Y15	Z15	X16	Y16	Z16	X17	Y17	Z17	X18	Y18	Z18	
175	1.45833	-125.652	-14.7962	97.767	-102.265	-7.54981	66.3191	-94.5021	4.64863	42.9802	-83.9655	10.5938	19.5685	-135.234	56.3885	51.5705	-130.656	72.9152	26.9606	-118.834	69.3638	-4.38018	-158.668	60.6104	35.9892	-151.32	72.9205	7.28953	-130.796	62.9033	-25.1245	-163.895	40.9751	18.9852	-141.522	29.2051	-4.07787	-132.836	1.13316	4.26647	-181.002	21.1657	16.7193	-159.061	13.0309	0.254095	-141.202	-12.2228	12.6854	-184.573	11.6937	74.9689	-191.141	-8.01453	96.6447	-158.551	10.2564	102.448	
176	1.46667	-124.7	-3.38632	97.6204	-103.663	1.56967	67.8059	-93.7782	14.068	46.4535	-84.9103	22.4121	23.9818	-137.718	67.1227	60.1064	-133.49	83.7194	30.4033	-120.806	82.695	5.90435	-160.202	71.2178	43.7562	-149.672	86.0801	17.92	-128.121	79.6956	-15.184	-165.701	51.0202	24.7393	-145.42	41.7378	-0.366689	-130.436	10.8036	11.6144	-178.183	31.8056	23.5514	-157.211	21.409	2.92767	-139.548	-0.619752	15.9615	-187.767	19.2158	76.9671	-194.025	-3.8188	97.9753	-160.04	19.4177	105.832	
177	1.475	-122.474	3.65457	102.319	-103.32	10.5556	69.6589	-94.3703	22.9872	50.4525	-86.7699	35.447	25.7216	-137.728	80.8436	66.2326	-134.569	95.8717	39.8521	-116.815	95.362	11.7685	-160.952	78.0408	51.1787	-149.349	97.2266	20.5675	-130.753	91.1135	-6.76452	-163.471	62.0498	29.8677	-145.086	52.9198	4.57999	-129.333	20.8324	14.2049	-182.694	35.4304	25.5701	-158.133	31.1481	5.46745	-137.322	7.66162	19.85	-188.603	28.4419	77.2429	-196.038	-2.51677	98.6495	-164.487	23.0326	109.118	
178	1.48333	-122.471	10.9813	103.04	-108.199	20.1098	70.9787	-90.7874	34.5334	51.2519	-82.6563	42.7626	29.316	-138.262	85.632	72.3878	-136.634	105.373	45.0687	-115.307	106.631	17.0404	-158.796	91.6455	55.1559	-147.098	108.039	27.1913	-127.845	103.224	-0.783036	-165.084	69.7591	33.6588	-144.727	59.9525	5.32429	-127.807	32.7745	15.2928	-179.97	44.4537	23.187	-156.694	41.0939	9.52965	-134.59	19.7316	23.1342	-189.685	32.7923	77.4017	-193.159	7.79925	100.485	-163.259	29.8713	111.782	
179	1.49167	-122.866	14.8452	104.108	-104.878	22.7271	74.6558	-93.2439	40.8965	52.5109	-84.7392	48.9773	32.9323	-139.448	96.1267	73.2094	-133.992	114.952	54.0532	-120.574	113.295	22.8483	-158.717	96.298	60.5944	-149.73	116.491	35.5124	-130.464	113.837	4.2369	-168.23	75.5861	33.6786	-144.318	72.8848	10.101	-128.668	41.2272	16.2013	-178.683	52.5625	23.6677	-152.817	47.9927	10.522	-133.86	27.0911	22.3638	-188.974	37.5741	80.2847	-191.405	10.2703	101.026	-164.032	33.1434	111.891	
180	1.5	-123.219	20.9586	103.212	-103.218	27.7045	74.9838	-88.1975	48.2805	52.6747	-83.1331	58.6394	30.4357	-140.547	96.5687	77.2098	-133.922	120.602	52.7715	-115.363	123.157	27.9035	-157.106	105.516	62.2318	-146.803	125.902	36.9183	-127.918	123.967	7.3854	-165.866	86.4501	33.7306	-142.987	83.2865	13.1848	-128.817	49.464	16.4311	-175.236	61.7306	27.5658	-153.394	56.9974	11.2402	-132.244	35.7167	21.0847	-184.757	47.1522	83.5816	-194.331	20.296	99.7163	-163.86	37.3925	109.453	
181	1.50833	-123.799	25.6953	101.487	-99.1197	35.7999	72.855	-86.8615	49.7333	55.3326	-79.0585	62.9703	32.3201	-137.58	106.484	79.445	-133.44	125.174	59.0226	-111.82	130.705	30.5877	-158.671	108.362	64.5609	-147.382	130.908	44.2364	-127.832	131.276	8.7823	-167.147	89.2425	38.4077	-140.394	86.6914	12.5022	-128.533	58.9331	15.9885	-179.152	63.9353	27.4138	-150.449	62.8456	13.3129	-130.429	40.1231	21.9137	-184.547	51.1025	83.4113	-192.922	19.559	98.734	-163.481	45.5062	108.324	
182	1.51667	-123.661	25.1618	101.701	-99.5231	37.7311	72.2	-85.2218	54.2239	53.3147	-76.8701	63.8395	33.3203	-136.377	106.523	81.7697	-131.4	129.803	61.8616	-112.771	136.045	32.1061	-157.316	112.418	66.6455	-146.758	136.718	40.6328	-130.351	136.934	14.0614	-160.534	97.2953	39.4785	-140.157	92.4536	13.7627	-128.345	59.1893	16.3522	-175.189	70.4523	25.9985	-153.531	65.3694	8.01142	-131.279	42.465	22.6589	-185.153	52.4446	80.4773	-191.53	22.3982	98.9705	-161.756	45.1499	109.404	
183	1.525	-124.082	28.8405	99.8355	-98.8457	38.8036	71.0557	-85.2131	54.9525	53.5738	-81.1228	68.1999	31.1601	-137.88	109.638	79.1719	-126.983	135.626	59.615	-112.34	139.498	35.1755	-159.472	111.544	65.3346	-146.857	139.468	40.7504	-127.181	140.07	11.8598	-163.134	97.7869	38.6493	-141.643	94.3375	10.8186	-127.748	65.8013	14.889	-176.34	71.6272	25.6823	-149.576	68.0666	11.2705	-128.55	47.9977	20.9782	-182.643	53.1618	82.2573	-193.989	24.8817	95.6621	-162.354	45.139	108.645	
184	1.53333	-121.738	31.2431	97.6373	-99.3091	38.2178	69.051	-88.1457	54.5605	50.4519	-79.2041	64.5459	31.4772	-137.201	107.811	78.0997	-130.377	131.868	60.1216	-116.228	137.227	31.6067	-158.691	115.811	61.4709	-146.572	138.889	44.5254	-127.023	141.629	13.6284	-163.734	100.054	34.3151	-141.199	96.6635	11.5028	-128.482	63.3746	13.1823	-174.734	74.1828	23.382	-149.313	69.9102	9.25444	-132.035	45.6589	17.0681	-184.415	55.4629	79.1012	-190.57	24.4851	94.0802	-161.127	48.4574	106.336	
185	1.54167	-121.913	27.8557	94.0609	-100.4	37.4374	64.9976	-86.9202	54.2821	46.2782	-81.6524	64.9038	24.9898	-136.81	108.754	74.1186	-132.006	130.505	55.2607	-116.552	134.436	27.5119	-155.66	113.988	62.0619	-147.937	135.949	38.7277	-128.515	138.487	9.10614	-163.869	95.8972	35.4424	-141.784	98.6692	9.81332	-129.284	65.2324	10.1253	-175.342	72.5919	26.225	-151.249	67.8833	3.96934	-133.99	46.5874	13.6277	-183.682	54.7472	76.6953	-189.025	27.4167	91.6715	-159.558	47.9009	103.469	
186	1.55	-120.186	26.3777	91.5717	-99.9097	33.2414	59.9439	-84.4807	45.6463	40.7056	-79.1355	54.6805	19.0605	-136.792	101.954	67.5814	-130.504	130.473	45.4724	-117.083	132.545	21.4497	-158.76	106.512	52.9721	-146.164	134.235	30.2159	-128.86	135.179	0.465864	-161.832	95.9564	27.7889	-143.668	92.6686	0.29289	-132.69	58.9648	1.98756	-177.453	70.2814	15.8674	-153.734	68.8206	0.7007	-134.043	42.4701	9.0006	-187.729	49.6684	68.4139	-192.563	26.4479	88.2981	-159.754	44.3158	100.008	
187	1.55833	-125.796	25.1793	83.1227	-104.416	27.3759	53.6262	-86.3627	37.8205	31.9723	-77.4451	45.0206	9.41212	-139.416	101.319	53.1435	-134.531	124.483	36.414	-117.351	128.168	4.00765	-157.925	105.623	39.5821	-151.995	126.137	13.3062	-133.373	123.84	-15.4489	-165.142	89.6953	17.3943	-146.609	87.5792	-9.47429	-135.576	57.5943	-12.1338	-181.258	63.1403	7.93031	-158.906	60.9868	-11.9629	-139.713	35.2734	-5.25065	-183.594	50.1802	60.2793	-194.593	23.8164	79.7606	-164.529	47.1054	87.4492	
188	1.56667	-125.873	25.9633	74.9497	-103.488	22.2118	45.2042	-87.4682	28.6874	23.5521	-78.4218	30.4951	-0.172283	-142.651	93.0752	33.0732	-138.565	114.719	12.1455	-125.957	115.287	-20.6476	-166.596	89.7517	16.8119	-156.465	109.743	-11.7997	-135.705	101.207	-44.9559	-176.044	73.9005	-1.04506	-158.561	70.9086	-30.6733	-140.708	41.9632	-30.1966	-186.955	49.033	-3.81808	-171.41	45.6459	-25.6804	-148.88	22.7993	-22.1734	-192.682	44.045	47.3677	-196.771	20.7229	77.3091	-166.388	48.2687	75.1312	
189	1.575	-126.124	25.1132	63.1953	-109.055	13.8019	35.8116	-87.657	12.8461	18.379	-72.283	10.1932	-3.1738	-142.963	77.0139	7.7225	-141.611	93.5488	-21.3204	-133.213	90.8649	-50.3011	-168.272	72.7725	-8.0621	-164.324	81.6854	-41.629	-149.419	66.8304	-73.1074	-180.293	54.8526	-18.1586	-170.395	44.2776	-51.4276	-150.178	18.3256	-54.3304	-198.893	27.9098	-12.8195	-185.054	23.5879	-35.0252	-158.504	3.79401	-36.7349	-191.585	35.9169	41.7716	-197.936	22.9733	71.9407	-163.465	44.9425	61.9417	
190	1.58333	-120.664	22.7588	52.4901	-102.325	3.14362	30.5963	-83.6673	-2.62579	13.4793	-67.5599	-10.0442	0.903614	-143.655	51.5692	-19.1694	-146.493	55.344	-49.0508	-142.02	50.5935	-79.8515	-170.275	47.6327	-30.5203	-166.469	47.2866	-65.7199	-162.875	28.5334	-92.4895	-190.572	26.592	-27.9961	-182.128	18.0694	-60.6323	-170.436	-10.1709	-72.6303	-204.57	6.66142	-10.298	-201.011	-2.21979	-39.3879	-177.525	-21.2492	-53.1246	-192.959	27.0988	26.2969	-195.571	25.7877	59.9733	-159.689	42.4905	49.2106	
191	1.59167	-120.225	16.2078	41.121	-101.644	-5.89914	32.4151	-83.3348	-16.5224	18.5084	-66.02	-27.4882	6.32075	-142.957	22.9146	-37.2921	-145.057	19.4951	-65.3934	-150.001	10.2993	-88.9645	-170.97	20.6699	-42.8094	-174.558	12.5706	-72.3939	-173.661	-6.62015	-101.842	-188.831	7.13759	-37.3378	-193.273	-9.96811	-64.4727	-188.487	-34.1222	-79.174	-207.326	-8.41813	-12.8517	-214.637	-21.1862	-34.3953	-201.505	-42.6579	-54.7201	-191.016	21.9241	19.7281	-191.043	28.3744	51.2717	-159.252	35.1777	35.3413	
192	1.6	-115.908	10.356	40.7379	-98.5491	-12.9063	31.8406	-82.0997	-26.1976	18.627	-60.1644	-37.0051	14.4221	-142.278	1.40393	-43.8446	-147.436	-8.40545	-64.4868	-147.572	-18.7431	-91.3359	-172.633	0.821076	-43.6992	-178.652	-12.1297	-71.8088	-182.631	-27.1896	-97.8551	-194.899	-11.9069	-35.9689	-199.454	-28.2141	-61.6541	-196.346	-50.3575	-79.2672	-215.013	-20.4596	-7.41296	-223.439	-34.0034	-25.5742	-224.906	-53.233	-47.2657	-189.092	15.8529	18.8336	-185.186	28.7359	50.2705	-154.854	28.7803	27.8025	
193	1.60833	-115.883	6.46248	43.1306	-102.184	-19.9202	35.1542	-81.6083	-34.2768	21.3962	-61.6869	-41.702	21.1977	-141.229	-9.72228	-43.256	-143.009	-20.1807	-64.6418	-150.951	-30.9831	-88.6241	-171.798	-10.1582	-47.3475	-178.021	-20.8454	-69.6391	-184.94	-35.5185	-95.9753	-196.971	-20.5961	-34.9573	-200.686	-36.9366	-57.9488	-204.175	-55.3117	-72.227	-212.653	-23.832	-6.17584	-226.404	-39.042	-20.5386	-233.991	-57.9093	-42.6513	-189.782	10.8279	14.7806	-189.012	28.3347	46.9925	-151.719	23.6355	25.4385	
194	1.61667	-118.307	0.299314	41.9993	-99.4425	-22.4616	36.9356	-83.7075	-36.6779	26.9708	-64.2212	-46.8438	19.5039	-141.64	-13.2582	-39.2523	-142.313	-23.9652	-65.3969	-145.773	-32.2838	-84.3795	-169.225	-11.8497	-43.7617	-175.607	-23.3705	-70.9877	-183.301	-35.4006	-93.5864	-195.061	-20.9785	-30.1083	-201.466	-37.3918	-53.378	-203.876	-59.9238	-74.0566	-214.672	-26.6922	-3.7623	-225.003	-43.525	-20.5157	-233.89	-57.4811	-39.941	-188.566	10.0128	18.8888	-185.708	23.6562	49.4466	-153.181	21.2286	29.517	
195	1.625	-118.263	-1.17069	47.4295	-102.266	-24.3991	39.7337	-81.3798	-37.5402	25.7571	-64.4776	-47.1819	24.5604	-139.598	-12.5979	-35.2399	-142.846	-23.2813	-64.2691	-146.553	-33.1341	-85.093	-170.062	-11.9668	-43.2817	-176.264	-21.3027	-65.5037	-180.311	-34.8704	-96.4023	-196.541	-21.9801	-28.5692	-202.603	-37.1405	-52.6385	-205.114	-56.5649	-70.4085	-214.939	-29.3688	-4.94371	-223.211	-40.9153	-18.0853	-232.013	-58.1796	-40.0289	-187.108	9.45867	18.5586	-184.298	21.859	47.5046	-152.797	18.4458	26.3854	
196	1.63333	-120.995	-4.13606	46.7927	-103.216	-26.0832	40.7564	-82.3348	-39.1897	28.7219	-60.8917	-48.1442	21.0421	-138.705	-14.0636	-35.2613	-143.329	-23.4916	-58.8271	-149.008	-33.8327	-84.7111	-170.221	-12.401	-39.4164	-177.037	-23.8057	-68.7196	-178.184	-34.6254	-97.5144	-195.485	-22.2454	-30.5218	-198.104	-38.4129	-56.7394	-202.541	-56.9533	-72.9721	-214.202	-29.8608	-4.38189	-225.039	-43.0847	-19.1241	-234.492	-58.5597	-38.1563	-189.036	6.96461	20.2834	-187.004	21.7712	50.4442	-149.851	16.9279	31.7634	
197	1.64167	-117.14	-5.26125	47.1345	-103.081	-28.003	41.1837	-83.56	-41.8594	24.5867	-62.9045	-49.2823	21.8976	-138.877	-15.7752	-37.1723	-143.71	-25.5029	-62.766	-146.966	-34.6539	-83.5184	-172.511	-13.6736	-39.5131	-172.298	-23.0433	-66.2472	-179.206	-35.5898	-97.2389	-194.354	-22.8927	-30.2107	-198.486	-37.8347	-54.7513	-205.885	-57.8951	-71.3463	-215.136	-31.1303	-4.78386	-225.547	-45.3892	-18.6314	-234.11	-57.0821	-38.0233	-186.967	4.69805	19.8043	-186.246	17.797	54.261	-153.183	13.411	29.6302	
198	1.65	-116.773	-6.99172	50.8341	-104.039	-30.9174	39.3301	-84.4054	-42.6107	28.1261	-64.2598	-51.8463	19.4681	-140.537	-17.3373	-33.2354	-140.565	-25.6294	-60.8499	-149.694	-35.9923	-83.9543	-173.463	-15.99	-42.6608	-177.789	-25.711	-69.3143	-180.452	-37.4607	-96.2829	-197.365	-24.3501	-27.8088	-203.9	-40.6027	-54.389	-204.153	-57.7439	-71.2724	-216.143	-31.8584	-1.45272	-227.298	-46.1969	-17.2328	-234.976	-60.0943	-36.5041	-189.186	2.45478	18.598	-185.465	14.923	52.4834	-152.768	13.0753	33.3354	
